<svg width="100" height="100" viewBox="0 0 100 100" fill="none" xmlns="http://www.w3.org/2000/svg">
<circle cx="50" cy="50" r="50" fill="white"/>
<path d="M23.5126 47.2249C23.5126 44.065 25.494 41.2444 28.4665 40.1726L78.8672 22V30.9659L32.8683 47.2604L78.8672 63.5549V72.5208L28.4577 54.274C25.4897 53.1996 23.5126 50.3813 23.5126 47.2249Z" fill="black"/>
<path d="M48.2419 57.4032C50.4093 51.1732 50.4954 44.4079 48.4871 38.1248L48.4177 37.9075L46.8814 36.8899L46.668 58.0333L48.2419 57.4032Z" fill="black"/>
<path d="M47.2249 77.3839C44.065 77.3839 41.2444 75.4025 40.1726 72.43L22 22.0293H30.9659L47.2604 68.0281L63.5549 22.0293L72.5208 22.0293L54.274 72.4388C53.1996 75.4067 50.3813 77.3839 47.2249 77.3839Z" fill="black"/>
</svg>
